# xmcd
#
# Track frame offsets:
# 150
# 17487
# 33317
#
# Disc length: 687 seconds
#
#
# Revision: 0
# Processed by: cddbd v1.4PL0 Copyright (c) Steve Scherf et al.
# Submitted via: FreeRIP 2.00 
#
DISCID=1602ad03
DTITLE=Trisha YearWood - There Foes My Baby
DYEAR=1998
DGENRE=Country
TTITLE0=There Goes My Baby
TTITLE1=One More Chance
TTITLE2=How Do I Live
EXTD=
EXTT0=
EXTT1=
EXTT2=
PLAYORDER=
